<?xml version="1.0" encoding="UTF-8" standalone="no"?>
<!DOCTYPE svg PUBLIC "-//W3C//DTD SVG 1.1//EN" "http://www.w3.org/Graphics/SVG/1.1/DTD/svg11.dtd">
<svg width="100%" height="100%" viewBox="0 0 584 210" version="1.1" xmlns="http://www.w3.org/2000/svg" xmlns:xlink="http://www.w3.org/1999/xlink" xml:space="preserve" xmlns:serif="http://www.serif.com/" style="fill-rule:evenodd;clip-rule:evenodd;stroke-linejoin:round;stroke-miterlimit:2;">
    <g transform="matrix(1,0,0,1,-583.159,-74.2873)">
        <g transform="matrix(0.895295,0,0,0.895295,146.659,-289.658)">
            <path d="M1099.89,406.509C1109.83,406.509 1117.25,408.643 1122.15,412.863C1127.1,417.132 1129.57,423.583 1129.57,432.266L1129.57,436.341L1138.64,436.341L1139.66,451.135L1130.11,451.135L1130.11,511.284L1110.08,511.284L1110.08,451.135L1097.22,451.135L1099.31,454.385C1100.18,456.859 1100.62,459.672 1100.62,462.971L1100.62,464.232C1100.62,471.072 1098.53,476.359 1094.31,480.094C1092.22,481.986 1089.41,483.441 1085.97,484.508L1080.34,485.381L1083.74,487.515C1085.48,488.874 1087.13,490.426 1088.64,492.124C1090.14,493.87 1091.74,495.907 1093.34,498.284L1101.73,510.508L1101.73,511.284L1077.24,511.284L1064.09,487.903L1057.93,487.321L1057.93,471.023L1065.31,471.023C1070.79,471.023 1074.62,470.198 1076.8,468.501C1078.93,466.754 1080,464.135 1080,460.643L1080,459.575C1080,457.053 1079.61,454.87 1078.79,453.075L1077.19,451.135L1047.65,451.135L1047.65,511.284L1027.62,511.284L1027.62,451.135L979.693,451.135L979.693,468.598L980.372,468.598C981.003,466.221 982.021,464.184 983.428,462.534C984.786,460.837 986.629,459.527 988.861,458.605C991.092,457.684 993.76,457.247 996.961,457.247C1003.22,457.247 1007.92,459.187 1011.17,463.019C1014.37,466.9 1015.98,472.624 1015.98,480.239L1015.98,481.937C1015.98,489.892 1014.23,495.762 1010.69,499.545C1007.1,503.329 1001.71,505.22 994.39,505.22C992.595,505.22 990.946,505.123 989.491,504.978C988.036,504.784 986.726,504.541 985.611,504.25L984.447,489.019C985.126,489.116 985.756,489.165 986.338,489.213C986.92,489.31 987.551,489.31 988.278,489.31C990.995,489.31 992.935,488.728 994.051,487.564C995.166,486.351 995.748,484.459 995.748,481.792L995.748,481.015C995.748,478.445 995.166,476.504 994.002,475.243C992.838,473.982 990.898,473.351 988.23,473.351C985.853,473.351 983.913,473.982 982.312,475.146L979.693,479.512L979.693,511.235L959.66,511.235L959.66,494.306L958.981,494.306C958.399,496.635 957.429,498.575 956.168,500.224C954.907,501.825 953.161,503.086 951.027,503.959C948.892,504.784 946.225,505.22 943.023,505.22C936.669,505.22 931.722,503.377 928.278,499.642C924.785,495.956 923.039,490.183 923.039,482.325L923.039,480.53C923.039,472.575 924.882,466.706 928.569,462.922C932.255,459.139 937.736,457.247 945.012,457.247C946.758,457.247 948.359,457.344 949.814,457.538C951.318,457.732 952.627,458.023 953.791,458.363L954.907,473.448C954.276,473.351 953.646,473.303 953.064,473.206C952.482,473.157 951.754,473.157 950.978,473.157C948.262,473.157 946.273,473.739 945.109,474.952C943.896,476.165 943.314,478.057 943.314,480.627L943.314,481.695C943.314,484.314 943.896,486.206 945.109,487.37C946.322,488.534 948.31,489.068 951.075,489.068C953.597,489.068 955.586,488.534 957.09,487.418L959.66,483.392L959.66,451.135L912.95,451.135L915.036,454.385C915.909,456.859 916.345,459.672 916.345,462.971L916.345,464.232C916.345,471.072 914.26,476.359 910.04,480.094C907.954,481.986 905.141,483.441 901.697,484.508L896.07,485.381L899.466,487.515C901.212,488.874 902.861,490.426 904.365,492.124C905.868,493.87 907.469,495.907 909.07,498.284L917.461,510.508L917.461,511.284L892.966,511.284L879.821,487.903L873.661,487.321L873.661,471.023L881.034,471.023C886.515,471.023 890.347,470.198 892.529,468.501C894.664,466.754 895.731,464.135 895.731,460.643L895.731,459.575C895.731,457.053 895.343,454.87 894.518,453.075L892.917,451.135L861.632,451.135L861.632,511.284L841.647,511.284L841.647,487.321L822.973,487.321L821.275,477.96L820.014,479.997C818.122,481.792 815.6,483.247 812.447,484.265L808.809,484.896L812.496,487.321C814.291,488.777 815.891,490.426 817.443,492.269C818.947,494.161 820.451,496.344 821.954,498.818L829.133,510.556L829.133,511.284L804.687,511.284L792.512,488L786.352,487.321L786.352,471.023L791.202,471.023C796.441,471.023 800.079,470.198 802.116,468.549C804.104,466.9 805.075,464.281 805.075,460.643L805.075,459.818C805.075,457.053 804.638,454.725 803.765,452.881L802.067,451.135L781.404,451.135L780.337,436.341L1110.17,436.341L1110.17,432.557C1110.17,428.967 1109.35,426.348 1107.7,424.747C1106.05,423.098 1103.58,422.322 1100.28,422.322C1097.12,422.322 1094.7,423.001 1093.1,424.359C1091.5,425.717 1090.67,427.803 1090.67,430.714L1090.67,433.43L1072.24,431.49C1071.95,430.52 1071.76,429.501 1071.61,428.531C1071.51,427.512 1071.42,426.445 1071.42,425.281C1071.42,419.557 1073.79,414.997 1078.6,411.602C1083.35,408.206 1090.48,406.509 1099.89,406.509ZM822.342,451.135L824.428,454.288C825.253,456.665 825.689,459.527 825.689,462.825L825.689,463.892L824.525,471.557L841.647,471.557L841.647,451.135L822.342,451.135Z"/>
        </g>
        <g transform="matrix(0.998344,0,0,0.998344,66.594,-388.258)">
            <path d="M780.337,577.059L1100.91,577.059L1101.88,591.854L1092.27,591.854L1092.27,651.954L1072.24,651.954L1072.24,627.458L1053.18,627.458L1051.58,618.339L1050.66,619.746C1048.76,621.492 1046.24,622.898 1043.04,623.917L1039.84,624.451L1043.57,626.973C1045.22,628.477 1046.78,630.175 1048.18,632.115C1049.64,634.055 1051.09,636.335 1052.6,638.954L1059.78,651.227L1059.78,651.954L1035.33,651.954L1023.45,626.925L1017.28,625.712L1006.08,625.712L1006.08,642.883L989.103,642.883C987.502,640.313 986.047,637.645 984.738,634.783C983.476,631.969 982.409,628.962 981.536,625.76C980.712,622.607 980.13,619.26 979.839,615.768L988.812,609.656L1013.31,609.656C1015.49,609.656 1017.38,609.705 1018.98,609.802C1020.58,609.947 1022.09,610.141 1023.45,610.432L1023.83,610.529L1028.93,610.044C1030.62,609.656 1031.93,609.122 1032.86,608.346C1034.75,606.794 1035.72,604.272 1035.72,600.731L1035.72,599.906C1035.72,597.287 1035.28,595.104 1034.41,593.358L1032.86,591.854L968.585,591.854L968.585,611.936C964.996,611.499 961.504,611.16 958.06,610.966C954.616,610.723 950.978,610.626 947.195,610.626C943.411,610.626 940.549,610.82 938.561,611.208C936.572,611.548 935.214,612.081 934.535,612.761C933.807,613.44 933.419,614.264 933.419,615.186L933.419,615.428C933.419,616.059 933.613,616.641 933.953,617.175C934.244,617.66 934.68,618.096 935.262,618.436C937.736,617.805 940.113,617.32 942.441,617.029C944.721,616.69 947.389,616.496 950.299,616.496C955.732,616.496 960.146,617.223 963.492,618.63C966.839,620.037 969.313,622.122 970.865,624.79C972.466,627.458 973.242,630.708 973.242,634.54L973.242,635.316C973.242,639.439 972.32,642.932 970.526,645.794C968.682,648.656 965.627,650.839 961.407,652.342C957.138,653.846 951.366,654.574 944.09,654.574L940.695,654.331L940.695,655.01C943.072,656.126 945.06,657.193 946.661,658.212C948.31,659.23 949.765,660.297 951.027,661.51C952.336,662.723 953.743,664.178 955.198,665.827L961.213,672.618L961.213,673.491L938.464,673.491L923.961,652.536L914.648,649.432L913.435,632.891C916.2,634.249 919.11,635.413 922.166,636.383C925.222,637.402 928.326,638.178 931.43,638.712C934.535,639.245 937.688,639.536 940.84,639.536C944.43,639.536 947.146,639.342 948.989,639.051C950.784,638.76 952.045,638.275 952.627,637.645C953.258,636.966 953.597,636.141 953.597,635.074L953.597,634.977C953.597,633.667 953.064,632.648 951.997,631.969C950.978,631.29 948.844,630.951 945.642,630.951C942.732,630.951 939.919,631.193 937.3,631.678C934.68,632.163 932.061,632.794 929.442,633.619C924.397,632.309 920.565,630.126 917.898,627.07C915.23,624.014 913.872,620.182 913.872,615.477L913.872,614.895C913.872,611.111 914.793,607.91 916.588,605.29C918.383,602.623 921.244,600.634 925.222,599.227C929.151,597.82 934.341,597.141 940.792,597.141L949.135,597.529L949.135,591.854L902.182,591.854L902.182,651.954L882.149,651.954L882.149,591.854L868.034,591.854L868.034,651.954L848.05,651.954L848.05,619.988L846.886,618.048C846.158,617.417 845.091,617.078 843.733,617.078C842.084,617.078 840.823,617.66 839.901,618.775C838.98,619.891 838.446,621.928 838.301,624.839L837.864,637.111L819.966,637.111L819.481,624.839C819.335,622.025 818.899,620.037 818.074,618.824C817.249,617.66 815.843,617.029 813.854,617.029C811.914,617.029 810.41,617.757 809.44,619.163C808.421,620.57 807.936,622.607 807.936,625.178C807.936,629.398 809.003,633.619 811.138,637.742C813.223,641.865 815.94,646.521 819.287,651.663L819.287,651.954L797.168,651.954C794.161,647.395 791.736,642.932 789.989,638.615C788.243,634.298 787.322,629.398 787.322,623.966C787.322,616.447 789.407,610.675 793.579,606.649C797.702,602.623 803.571,600.634 811.089,600.634C815.988,600.634 819.82,601.458 822.536,603.156C825.253,604.854 827.144,607.279 828.115,610.384L828.648,610.384C829.424,607.279 830.976,604.902 833.353,603.253C835.681,601.555 838.495,600.731 841.696,600.731C843.491,600.731 845.043,600.925 846.304,601.361L848.05,602.332L848.05,591.854L781.404,591.854L780.337,577.059ZM1053.03,591.854L1055.07,594.861C1055.89,597.19 1056.33,599.955 1056.33,603.205L1056.33,604.126L1055.12,611.693L1072.24,611.693L1072.24,591.854L1053.03,591.854Z"/>
        </g>
        <g transform="matrix(0.897558,0,0,0.897558,96.4879,18.3578)">
            <circle cx="659.106" cy="179.203" r="116.89" style="fill:rgb(255,109,103);"/>
        </g>
    </g>
</svg>
